<svg width="716" height="718" viewBox="0 0 716 718" fill="none" xmlns="http://www.w3.org/2000/svg">
<path d="M0 3.00037H349L299 106.044H0V3.00037Z" fill="#03A15E"/>
<path d="M1 13.515H100L49.51 619.994L1 718V13.515Z" fill="#03A15E"/>
<path d="M0 199.625H253.275L197.5 314L0 302.669V199.625Z" fill="#03A15E"/>
<path d="M666.985 89.7879C693 137.167 669.569 202.603 614.65 235.942C559.731 269.282 494.121 257.9 468.105 210.521C442.09 163.142 465.521 97.7061 520.44 64.3666C575.359 31.0271 640.969 42.4086 666.985 89.7879Z" fill="#F1471D"/>
<path d="M123.5 658.066H715V718H0L123.5 658.066Z" fill="#1565AF"/>
<path d="M543.5 451.978L639 485.099L714.5 658.509H625.242L451 496.666L543.5 451.978Z" fill="#1565AF"/>
<path d="M519 556.074L714.503 521.586V366.809L451 496.666L519 556.074Z" fill="#1565AF"/>
<path d="M49.5 621.5L715 295L715.5 367L2 718L49.5 621.5Z" fill="#D9D9D9"/>
<path d="M84.5 673L441 0H346.5L1.5 717L84.5 673Z" fill="#D9D9D9"/>
</svg>
