<svg width="64" height="64" viewBox="0 0 64 64" fill="none" xmlns="http://www.w3.org/2000/svg">
<path d="M0 0.267578H31.2173L26.7449 9.45256H0V0.267578Z" fill="#03A15E"/>
<path d="M0.0898438 1.20508H8.94519L4.42896 55.2645L0.0898438 64.0004V1.20508Z" fill="#03A15E"/>
<path d="M0 17.7939H22.6549L17.666 27.9889L0 26.9789V17.7939Z" fill="#03A15E"/>
<path d="M59.661 8.00327C61.988 12.2265 59.8922 18.0592 54.9798 21.031C50.0674 24.0027 44.1987 22.9882 41.8717 18.765C39.5446 14.5418 41.6405 8.70907 46.5529 5.7373C51.4653 2.76554 57.334 3.78005 59.661 8.00327Z" fill="#F1471D"/>
<path d="M11.0468 58.6572H63.9553V63.9995H0L11.0468 58.6572Z" fill="#1565AF"/>
<path d="M48.6157 40.2871L57.158 43.2394L63.9113 58.6965H55.9274L40.3418 44.2704L48.6157 40.2871Z" fill="#1565AF"/>
<path d="M46.4243 49.5664L63.9116 46.4923V32.696L40.3418 44.271L46.4243 49.5664Z" fill="#1565AF"/>
<path d="M4.42846 55.398L63.9561 26.2949L64.0008 32.7127L0.179688 63.9996L4.42846 55.398Z" fill="#D9D9D9"/>
<path d="M7.55894 59.9888L39.4471 0H30.9943L0.134766 63.9108L7.55894 59.9888Z" fill="#D9D9D9"/>
</svg>
